<svg width="10" height="18" viewBox="0 0 10 18" fill="none" xmlns="http://www.w3.org/2000/svg">
<path fill-rule="evenodd" clip-rule="evenodd" d="M9.19249 1.05752C9.25069 1.11558 9.29687 1.18455 9.32838 1.26048C9.35989 1.33641 9.3761 1.41781 9.3761 1.50002C9.3761 1.58223 9.35989 1.66363 9.32838 1.73956C9.29687 1.81549 9.25069 1.88446 9.19249 1.94252L2.13374 9.00002L9.19249 16.0575C9.30984 16.1749 9.37578 16.3341 9.37578 16.5C9.37578 16.666 9.30984 16.8252 9.19249 16.9425C9.07513 17.0599 8.91596 17.1258 8.74999 17.1258C8.58402 17.1258 8.42485 17.0599 8.30749 16.9425L0.807488 9.44252C0.749284 9.38446 0.703105 9.31549 0.671597 9.23956C0.640089 9.16363 0.623871 9.08223 0.623871 9.00002C0.623871 8.91781 0.640089 8.83641 0.671597 8.76048C0.703105 8.68455 0.749284 8.61558 0.807488 8.55752L8.30749 1.05752C8.36554 0.999315 8.43451 0.953136 8.51045 0.921628C8.58638 0.89012 8.66778 0.873901 8.74999 0.873901C8.8322 0.873901 8.9136 0.89012 8.98953 0.921628C9.06546 0.953136 9.13443 0.999315 9.19249 1.05752Z" fill="#A5A5A5"/>
</svg>
