<svg width="15" height="18" viewBox="0 0 15 18" fill="none" xmlns="http://www.w3.org/2000/svg">
<path fill-rule="evenodd" clip-rule="evenodd" d="M9.44252 1.05752C9.50072 1.11558 9.5469 1.18455 9.57841 1.26048C9.60992 1.33641 9.62613 1.41781 9.62613 1.50002C9.62613 1.58223 9.60992 1.66363 9.57841 1.73956C9.5469 1.81549 9.50072 1.88446 9.44252 1.94252L2.38377 9.00002L9.44252 16.0575C9.55988 16.1749 9.62581 16.3341 9.62581 16.5C9.62581 16.666 9.55988 16.8252 9.44252 16.9425C9.32516 17.0599 9.16599 17.1258 9.00002 17.1258C8.83405 17.1258 8.67488 17.0599 8.55752 16.9425L1.05752 9.44252C0.999315 9.38446 0.953136 9.31549 0.921628 9.23956C0.89012 9.16363 0.873901 9.08223 0.873901 9.00002C0.873901 8.91781 0.89012 8.83641 0.921628 8.76048C0.953136 8.68455 0.999315 8.61558 1.05752 8.55752L8.55752 1.05752C8.61557 0.999315 8.68454 0.953136 8.76048 0.921628C8.83641 0.89012 8.91781 0.873901 9.00002 0.873901C9.08223 0.873901 9.16363 0.89012 9.23956 0.921628C9.31549 0.953136 9.38446 0.999315 9.44252 1.05752Z" fill="#A5A5A5"/>
<path fill-rule="evenodd" clip-rule="evenodd" d="M14.4425 1.05752C14.5007 1.11558 14.5469 1.18455 14.5784 1.26048C14.6099 1.33641 14.6261 1.41781 14.6261 1.50002C14.6261 1.58223 14.6099 1.66363 14.5784 1.73956C14.5469 1.81549 14.5007 1.88446 14.4425 1.94252L7.38377 9.00002L14.4425 16.0575C14.5006 16.1156 14.5467 16.1846 14.5782 16.2605C14.6096 16.3365 14.6258 16.4178 14.6258 16.5C14.6258 16.5822 14.6096 16.6636 14.5782 16.7395C14.5467 16.8154 14.5006 16.8844 14.4425 16.9425C14.3844 17.0006 14.3154 17.0467 14.2395 17.0782C14.1636 17.1096 14.0822 17.1258 14 17.1258C13.9178 17.1258 13.8365 17.1096 13.7605 17.0782C13.6846 17.0467 13.6156 17.0006 13.5575 16.9425L6.05752 9.44252C5.99931 9.38446 5.95314 9.31549 5.92163 9.23956C5.89012 9.16363 5.8739 9.08223 5.8739 9.00002C5.8739 8.91781 5.89012 8.83641 5.92163 8.76048C5.95314 8.68455 5.99931 8.61558 6.05752 8.55752L13.5575 1.05752C13.6156 0.999315 13.6845 0.953136 13.7605 0.921628C13.8364 0.89012 13.9178 0.873901 14 0.873901C14.0822 0.873901 14.1636 0.89012 14.2396 0.921628C14.3155 0.953136 14.3845 0.999315 14.4425 1.05752Z" fill="#A5A5A5"/>
</svg>
