<svg width="15" height="18" viewBox="0 0 15 18" fill="none" xmlns="http://www.w3.org/2000/svg">
<path fill-rule="evenodd" clip-rule="evenodd" d="M0.557488 1.05752C0.615545 0.999315 0.684515 0.953136 0.760446 0.921628C0.836377 0.89012 0.917779 0.873901 0.999988 0.873901C1.0822 0.873901 1.1636 0.89012 1.23953 0.921628C1.31546 0.953136 1.38443 0.999315 1.44249 1.05752L8.94249 8.55752C9.00069 8.61558 9.04687 8.68455 9.07838 8.76048C9.10989 8.83641 9.1261 8.91781 9.1261 9.00002C9.1261 9.08223 9.10989 9.16363 9.07838 9.23956C9.04687 9.31549 9.00069 9.38446 8.94249 9.44252L1.44249 16.9425C1.32513 17.0599 1.16596 17.1258 0.999988 17.1258C0.834018 17.1258 0.674846 17.0599 0.557488 16.9425C0.44013 16.8252 0.374199 16.666 0.374199 16.5C0.374199 16.3341 0.44013 16.1749 0.557488 16.0575L7.61624 9.00002L0.557488 1.94252C0.499284 1.88446 0.453106 1.81549 0.421597 1.73956C0.390089 1.66363 0.373871 1.58223 0.373871 1.50002C0.373871 1.41781 0.390089 1.33641 0.421597 1.26048C0.453106 1.18455 0.499284 1.11558 0.557488 1.05752Z" fill="#A5A5A5"/>
<path fill-rule="evenodd" clip-rule="evenodd" d="M5.55749 1.05752C5.61554 0.999315 5.68451 0.953136 5.76045 0.921628C5.83638 0.89012 5.91778 0.873901 5.99999 0.873901C6.0822 0.873901 6.1636 0.89012 6.23953 0.921628C6.31546 0.953136 6.38443 0.999315 6.44249 1.05752L13.9425 8.55752C14.0007 8.61558 14.0469 8.68455 14.0784 8.76048C14.1099 8.83641 14.1261 8.91781 14.1261 9.00002C14.1261 9.08223 14.1099 9.16363 14.0784 9.23956C14.0469 9.31549 14.0007 9.38446 13.9425 9.44252L6.44249 16.9425C6.32513 17.0599 6.16596 17.1258 5.99999 17.1258C5.83402 17.1258 5.67485 17.0599 5.55749 16.9425C5.44013 16.8252 5.3742 16.666 5.3742 16.5C5.3742 16.3341 5.44013 16.1749 5.55749 16.0575L12.6162 9.00002L5.55749 1.94252C5.49928 1.88446 5.4531 1.81549 5.4216 1.73956C5.39009 1.66363 5.37387 1.58223 5.37387 1.50002C5.37387 1.41781 5.39009 1.33641 5.4216 1.26048C5.4531 1.18455 5.49928 1.11558 5.55749 1.05752Z" fill="#A5A5A5"/>
</svg>
