<svg width="10" height="18" viewBox="0 0 10 18" fill="none" xmlns="http://www.w3.org/2000/svg">
<path fill-rule="evenodd" clip-rule="evenodd" d="M0.807488 1.05752C0.865545 0.999315 0.934514 0.953136 1.01045 0.921628C1.08638 0.89012 1.16778 0.873901 1.24999 0.873901C1.3322 0.873901 1.4136 0.89012 1.48953 0.921628C1.56546 0.953136 1.63443 0.999315 1.69249 1.05752L9.19249 8.55752C9.25069 8.61558 9.29687 8.68455 9.32838 8.76048C9.35989 8.83641 9.3761 8.91781 9.3761 9.00002C9.3761 9.08223 9.35989 9.16363 9.32838 9.23956C9.29687 9.31549 9.25069 9.38446 9.19249 9.44252L1.69249 16.9425C1.57513 17.0599 1.41596 17.1258 1.24999 17.1258C1.08402 17.1258 0.924846 17.0599 0.807488 16.9425C0.690129 16.8252 0.624198 16.666 0.624198 16.5C0.624198 16.3341 0.690129 16.1749 0.807488 16.0575L7.86624 9.00002L0.807488 1.94252C0.749284 1.88446 0.703105 1.81549 0.671597 1.73956C0.640089 1.66363 0.623871 1.58223 0.623871 1.50002C0.623871 1.41781 0.640089 1.33641 0.671597 1.26048C0.703105 1.18455 0.749284 1.11558 0.807488 1.05752Z" fill="#A5A5A5"/>
</svg>
