<svg width="36" height="34" viewBox="0 0 36 34" fill="none" xmlns="http://www.w3.org/2000/svg">
<path d="M34.9727 16.7266L18.8828 0.648467C18.767 0.532389 18.6294 0.440297 18.4779 0.377464C18.3264 0.31463 18.164 0.282288 18 0.282288C17.836 0.282288 17.6736 0.31463 17.5221 0.377464C17.3706 0.440297 17.233 0.532389 17.1172 0.648467L1.02734 16.7266C0.558594 17.1953 0.292969 17.8321 0.292969 18.4961C0.292969 19.875 1.41406 20.9961 2.79297 20.9961H4.48828V32.4688C4.48828 33.1602 5.04688 33.7188 5.73828 33.7188H15.5V24.9688H19.875V33.7188H30.2617C30.9531 33.7188 31.5117 33.1602 31.5117 32.4688V20.9961H33.207C33.8711 20.9961 34.5078 20.7344 34.9766 20.2617C35.9492 19.2852 35.9492 17.7032 34.9727 16.7266Z" fill="#9C9C9C"/>
</svg>
