<svg width="17" height="18" viewBox="0 0 17 18" fill="none" xmlns="http://www.w3.org/2000/svg">
<path d="M7.27001 15.3945C8.88302 15.3941 10.4495 14.8224 11.7202 13.7704L15.715 18L17 16.6395L13.0051 12.4099C13.9993 11.0645 14.5396 9.40549 14.54 7.69724C14.54 3.45318 11.2785 0 7.27001 0C3.26151 0 0 3.45318 0 7.69724C0 11.9413 3.26151 15.3945 7.27001 15.3945ZM7.27001 1.92431C10.2771 1.92431 12.7225 4.51347 12.7225 7.69724C12.7225 10.881 10.2771 13.4702 7.27001 13.4702C4.26295 13.4702 1.8175 10.881 1.8175 7.69724C1.8175 4.51347 4.26295 1.92431 7.27001 1.92431Z" fill="#F75000"/>
</svg>
