<svg width="15" height="16" viewBox="0 0 15 16" fill="none" xmlns="http://www.w3.org/2000/svg">
<path d="M11.076 15.17C10.9652 15.1697 10.8561 15.1399 10.7581 15.083L7.27425 13.073L3.79036 15.083C3.67756 15.1479 3.55048 15.1769 3.42347 15.1667C3.29646 15.1565 3.17456 15.1077 3.07152 15.0255C2.96847 14.9434 2.88838 14.8314 2.84028 14.702C2.79217 14.5726 2.77797 14.431 2.79926 14.2933L3.46432 10.0363L0.645495 7.02128C0.554306 6.92359 0.489826 6.79986 0.459335 6.66408C0.428843 6.5283 0.433555 6.38588 0.472939 6.25288C0.512322 6.11988 0.584808 6.00162 0.682212 5.91144C0.779616 5.82125 0.898058 5.76275 1.02416 5.74253L4.91953 5.12153L6.66182 1.24853C6.72458 1.13141 6.81414 1.03431 6.92162 0.966845C7.0291 0.899381 7.15077 0.863892 7.27459 0.863892C7.39842 0.863892 7.52009 0.899381 7.62757 0.966845C7.73505 1.03431 7.82461 1.13141 7.88737 1.24853L9.62897 5.12153L13.5243 5.74253C13.6504 5.76275 13.7689 5.82125 13.8663 5.91144C13.9637 6.00162 14.0362 6.11988 14.0756 6.25288C14.115 6.38588 14.1197 6.5283 14.0892 6.66408C14.0587 6.79986 13.9942 6.92359 13.903 7.02128L11.0842 10.0363L11.7499 14.2933C11.7667 14.4009 11.7619 14.5112 11.7359 14.6166C11.7098 14.722 11.6631 14.8198 11.5989 14.9033C11.5348 14.9868 11.4549 15.0539 11.3647 15.1C11.2745 15.1461 11.1762 15.17 11.0767 15.17H11.076Z" fill="black"/>
</svg>
