<svg width="59" height="73" viewBox="0 0 59 73" fill="none" xmlns="http://www.w3.org/2000/svg">
<path d="M26.8437 42.0117H17.8789C17.7028 42.0117 17.5339 42.08 17.4093 42.2016C17.2848 42.3232 17.2148 42.4882 17.2148 42.6602V46.5508C17.2148 46.7228 17.2848 46.8877 17.4093 47.0093C17.5339 47.1309 17.7028 47.1992 17.8789 47.1992H26.8437V55.9531C26.8437 56.1251 26.9137 56.29 27.0382 56.4116C27.1628 56.5332 27.3317 56.6016 27.5078 56.6016H31.4922C31.6683 56.6016 31.8372 56.5332 31.9617 56.4116C32.0863 56.29 32.1562 56.1251 32.1562 55.9531V47.1992H41.1211C41.2972 47.1992 41.4661 47.1309 41.5907 47.0093C41.7152 46.8877 41.7852 46.7228 41.7852 46.5508V42.6602C41.7852 42.4882 41.7152 42.3232 41.5907 42.2016C41.4661 42.08 41.2972 42.0117 41.1211 42.0117H32.1562V33.2578C32.1562 33.0858 32.0863 32.9209 31.9617 32.7993C31.8372 32.6777 31.6683 32.6094 31.4922 32.6094H27.5078C27.3317 32.6094 27.1628 32.6777 27.0382 32.7993C26.9137 32.9209 26.8437 33.0858 26.8437 33.2578V42.0117ZM57.9385 18.4005C58.4365 18.8868 58.7187 19.5434 58.7187 20.2323V70.2188C58.7187 71.6534 57.5317 72.8125 56.0625 72.8125H2.9375C1.46826 72.8125 0.28125 71.6534 0.28125 70.2188V2.78125C0.28125 1.34658 1.46826 0.1875 2.9375 0.1875H38.1909C38.8965 0.1875 39.5771 0.463086 40.0752 0.949414L57.9385 18.4005ZM52.5928 21.4238L36.9707 6.16934V21.4238H52.5928Z" fill="#F75000"/>
</svg>
